PathFileType	4	(X/Y/Z)	E:\Qualisys_Data\Carbon_Farble_Plate\Data\Amateur_Runner\S14\T2\S14T2V25_c3d.trc
DataRate	CameraRate	NumFrames	NumMarkers	Units	OrigDataRate	OrigDataStartFrame	OrigNumFrames
200.000000	200.000000	4	39	mm	200.000000	277	317
Frame#	Time	LSHO			RSHO			LICST			RICST			LASIS			LHEEL			RASIS			LTROC			RTROC			SACR			LTH1			LSK4			LTH2			LTH3			RHM5			LSK2			LTH4			RTH1			LTOE			RTH2			RTH3			RTH4			LLEP			RLEP			LSK1			LSK3			RSK1			LHM5			RSK2			LFT1			RSK3			RSK4			LLME			RLME			RTOE			RHEEL			RFT1			RFT2			LFT2			
		X1	Y1	Z1	X2	Y2	Z2	X3	Y3	Z3	X4	Y4	Z4	X5	Y5	Z5	X6	Y6	Z6	X7	Y7	Z7	X8	Y8	Z8	X9	Y9	Z9	X10	Y10	Z10	X11	Y11	Z11	X12	Y12	Z12	X13	Y13	Z13	X14	Y14	Z14	X15	Y15	Z15	X16	Y16	Z16	X17	Y17	Z17	X18	Y18	Z18	X19	Y19	Z19	X20	Y20	Z20	X21	Y21	Z21	X22	Y22	Z22	X23	Y23	Z23	X24	Y24	Z24	X25	Y25	Z25	X26	Y26	Z26	X27	Y27	Z27	X28	Y28	Z28	X29	Y29	Z29	X30	Y30	Z30	X31	Y31	Z31	X32	Y32	Z32	X33	Y33	Z33	X34	Y34	Z34	X35	Y35	Z35	X36	Y36	Z36	X37	Y37	Z37	X38	Y38	Z38	X39	Y39	Z39	

278	1.385	2434.2197265625	1437.203125	-492.5596618652344	2407.093017578125	1422.41650390625	-202.1803588867188	2426.272705078125	975.6063842773438	-488.6244506835938	2439.666015625	974.9723510742188	-211.5126342773438	2471.51318359375	927.5606689453124	-466.3951721191406	2039.244506835938	211.6879577636719	-403.9224548339844	2470.539794921875	936.5590209960938	-233.2449340820312	2338.320556640625	858.3634643554688	-515.2843017578125	2356.083251953125	844.368896484375	-176.2859954833984	2294.828857421875	966.3689575195312	-358.0724792480469	2407.093505859375	626.7533569335938	-523.0581665039062	2193.57568359375	348.9420471191406	-486.7104187011719	2331.541259765625	626.2962646484375	-503.3546752929688	2415.096435546875	528.6947021484375	-507.9551696777344	2487.571533203125	96.1607666015625	-189.7897644042969	2262.338623046875	417.5481567382812	-506.351806640625	2337.03125	528.861083984375	-489.7765808105469	2581.98779296875	705.700927734375	-198.5521850585938	2206.343505859375	37.45623016357422	-442.9830017089844	2515.0810546875	668.4881591796875	-185.5675964355469	2629.82177734375	621.3836059570312	-227.7661743164062	2560.3251953125	579.6262817382812	-206.3827819824219	2358.3671875	460.1259765625	-505.731689453125	2609.475830078125	532.1220703125	-211.6403198242188	2320.696533203125	360.3138427734375	-504.9393615722656	2248.785888671875	289.2117004394531	-490.9868774414062	2579.751953125	412.7268371582031	-208.3952941894531	2136.786865234375	54.12256240844727	-502.336669921875	2503.559814453125	452.6071472167969	-206.9098510742188	2030.196533203125	185.2749633789062	-379.9961547851562	2523.443603515625	324.4028625488281	-217.8314056396484	2458.668212890625	367.1857604980469	-212.9826507568359	2096.1953125	193.7907257080078	-469.5824279785156	2400.38427734375	200.2172393798828	-223.9083862304688	2563.9912109375	71.97372436523438	-249.2220153808594	2334.97021484375	195.0092010498047	-279.0346984863281	2335.62890625	158.6377410888672	-303.6191711425781	2323.806396484375	171.6737823486328	-250.5302581787109	2015.431030273438	186.2245941162109	-433.1493530273438
279	1.39	2455.571533203125	1440.933837890625	-490.2570495605469	2425.455322265625	1425.672485351562	-201.2292022705078	2448.221435546875	978.8091430664062	-487.99462890625	2460.203125	979.3611450195312	-210.747314453125	2493.180419921875	930.898193359375	-465.1333618164062	2052.586181640625	221.709716796875	-407.1893920898438	2491.366455078125	940.8184204101562	-231.7869567871094	2358.6611328125	861.2537231445312	-514.1124267578125	2377.390869140625	849.2346801757812	-174.7405395507812	2315.900146484375	968.8697509765624	-357.6826171875	2425.005615234375	630.0365600585938	-524.0440063476562	2206.097900390625	354.1806945800781	-488.4566650390625	2348.310302734375	629.5567016601562	-503.7254333496094	2431.099853515625	530.8402099609375	-509.05810546875	2533.453369140625	92.86087036132812	-190.3749237060547	2275.4951171875	422.7304382324219	-507.515380859375	2352.9970703125	531.9472045898438	-491.4890441894531	2603.353759765625	709.8233642578125	-197.7635650634766	2209.801513671875	36.14260864257812	-443.8117065429688	2535.6640625	672.7059326171875	-184.9740753173828	2651.48046875	625.9310302734375	-227.6494750976562	2581.77880859375	584.1068115234375	-205.5353698730469	2371.91943359375	463.7749633789062	-506.9886169433594	2632.10107421875	536.0645141601562	-211.6142425537109	2334.367431640625	364.4408874511719	-507.5597534179688	2260.6005859375	294.1754760742188	-493.5156860351562	2607.703125	414.8717041015625	-208.1586608886719	2141.7509765625	56.8637809753418	-503.9677429199219	2527.98046875	450.1455688476562	-205.5245513916016	2042.013427734375	195.9821929931641	-383.4994812011719	2558.8203125	323.3423767089844	-218.0468597412109	2489.61865234375	362.4000854492188	-212.4160614013672	2107.8037109375	200.1151885986328	-472.8341979980469	2440.742919921875	192.3648376464844	-224.0550079345703	2611.5849609375	73.16688537597656	-250.6138305664062	2375.391357421875	183.1483306884766	-278.9005432128906	2378.142822265625	146.5081176757812	-303.7666320800781	2366.46337890625	158.4122161865234	-251.8336334228516	2027.608642578125	196.6244506835938	-436.8791809082031
280	1.395	2476.674072265625	1444.246337890625	-487.5062866210938	2443.381591796875	1428.393188476562	-200.4913177490234	2469.391357421875	981.8268432617188	-486.7075805664062	2479.681640625	983.1749877929688	-209.6958618164062	2514.29833984375	933.8843994140624	-463.5653381347656	2066.649169921875	231.1132354736328	-411.5191650390625	2511.8798828125	944.7874145507812	-230.2506103515625	2379.302978515625	864.0172119140625	-513.3848266601562	2398.548828125	853.4290771484375	-173.3932495117188	2336.8564453125	971.1550903320312	-357.1668701171875	2441.6552734375	632.1494140625	-524.1383056640625	2218.6328125	360.1647644042969	-490.7686157226562	2365.11279296875	633.1359252929688	-505.0253601074219	2446.54296875	533.5584716796875	-510.1671752929688	2579.175048828125	90.10909271240234	-191.1677856445312	2289.0419921875	427.3989562988281	-509.050048828125	2369.020263671875	535.4496459960938	-492.7545776367188	2624.595703125	713.2513427734375	-197.2961883544922	2213.40576171875	34.68815994262695	-444.4498901367188	2557.734375	676.367919921875	-185.2006530761719	2672.88525390625	629.5469360351562	-226.8022766113281	2603.822998046875	587.574462890625	-206.2472686767578	2386.58251953125	468.1613159179688	-508.8853759765625	2654.22900390625	539.7716674804688	-211.1116638183594	2347.00048828125	368.2279663085938	-509.2431335449219	2272.56591796875	299.1874694824219	-495.9628601074219	2635.08642578125	416.4505920410156	-207.6942596435547	2147.44189453125	60.1639518737793	-504.6781616210938	2555.826171875	447.4344482421875	-204.2325134277344	2054.54345703125	206.5023803710938	-387.0668029785156	2591.590087890625	322.2494201660156	-217.321533203125	2520.13916015625	357.8757934570312	-211.5018920898438	2119.860107421875	206.1898040771484	-475.797119140625	2480.980712890625	184.1767578125	-223.9258117675781	2658.2080078125	75.34016418457031	-251.7440643310547	2415.821044921875	172.4378967285156	-278.4382019042969	2419.878662109375	136.7729187011719	-303.2756958007812	2407.2744140625	147.2805786132812	-250.3989410400391	2040.397094726562	207.7583618164062	-440.5720520019531
281	1.4	2497.474609375	1447.39013671875	-485.2795715332031	2461.2646484375	1431.376342773438	-199.1188201904297	2490.423095703125	984.0784912109376	-485.7403259277344	2499.54345703125	986.7725830078124	-208.2358703613281	2534.982421875	936.6673583984376	-461.8345336914062	2082.669189453125	240.2914733886719	-416.2460632324219	2531.442138671875	948.4691772460938	-228.4013061523438	2399.808837890625	867.0967407226562	-512.5449829101562	2419.282958984375	857.6810913085938	-172.5919647216797	2357.6328125	973.7864990234376	-356.9560852050781	2458.68701171875	634.772216796875	-524.5087280273438	2231.923828125	365.415283203125	-491.753173828125	2381.925537109375	636.7880859375	-504.9135437011719	2462.535888671875	536.18310546875	-511.1970825195312	2625.166748046875	88.0048828125	-192.2513427734375	2302.858154296875	432.4857482910156	-510.2730712890625	2383.732666015625	538.6574096679688	-493.3743286132812	2645.434814453125	716.2246704101562	-197.0609130859375	2217.224365234375	33.61553573608398	-444.9598693847656	2578.744384765625	678.8386840820312	-184.7823638916016	2693.83203125	632.3953857421875	-225.9428863525391	2624.786376953125	590.4378662109375	-205.6112976074219	2400.164306640625	472.2903137207031	-510.094482421875	2675.546875	542.042724609375	-210.7072296142578	2360.19482421875	373.0682067871094	-511.031982421875	2285.172607421875	304.1433410644531	-498.0620422363281	2662.614013671875	417.8205871582031	-206.6376800537109	2153.3974609375	63.39597320556641	-505.6719055175781	2581.3154296875	444.3187866210938	-202.3205871582031	2067.475830078125	216.7676086425781	-390.7875366210938	2623.792724609375	321.7509765625	-216.2173004150391	2551.034423828125	352.331298828125	-210.2337188720703	2132.49560546875	212.2285461425781	-479.0148315429688	2519.048095703125	177.1541900634766	-223.1197509765625	2702.5673828125	78.2906723022461	-250.5678863525391	2457.138427734375	161.89453125	-277.7973937988281	2464.01611328125	125.8959197998047	-303.8709411621094	2449.88427734375	136.0280151367188	-250.8503112792969	2054.318115234375	218.1037445068359	-444.7028198242188
